<?xml version="1.0" encoding="UTF-8" standalone="no"?>
<svg
   width="16"
   height="16"
   viewBox="0 0 16 16"
   fill="currentColor"
   version="1.1"
   id="svg4"
   sodipodi:docname="pageicon.svg"
   inkscape:version="1.2.1 (9c6d41e410, 2022-07-14)"
   xmlns:inkscape="http://www.inkscape.org/namespaces/inkscape"
   xmlns:sodipodi="http://sodipodi.sourceforge.net/DTD/sodipodi-0.dtd"
   xmlns="http://www.w3.org/2000/svg"
   xmlns:svg="http://www.w3.org/2000/svg">
  <defs
     id="defs8" />
  <sodipodi:namedview
     id="namedview6"
     pagecolor="#505050"
     bordercolor="#ffffff"
     borderopacity="1"
     inkscape:showpageshadow="0"
     inkscape:pageopacity="0"
     inkscape:pagecheckerboard="1"
     inkscape:deskcolor="#505050"
     showgrid="false"
     inkscape:zoom="32"
     inkscape:cx="10.8125"
     inkscape:cy="9.25"
     inkscape:window-width="1920"
     inkscape:window-height="1009"
     inkscape:window-x="-8"
     inkscape:window-y="-8"
     inkscape:window-maximized="1"
     inkscape:current-layer="svg4" />
  <path
     d="M 14.5,1 C 14.195312,1 1.5,1 1.5,1 1.2070312,1 1,1.2070312 1,1.5 c 0,0.2929687 0,13 0,13 0,0.307292 0.1888021,0.5 0.5,0.5 h 13 c 0.295573,0 0.5,-0.192708 0.5,-0.5 0,0 0,-12.7035528 0,-13 C 15,1.2035528 14.804688,1 14.5,1 Z M 14,14 H 5 v -2 h 2.3 c 0.3,0.6 1,1 1.7,1 1.1,0 2,-0.9 2,-2 C 11,9.9 10.1,9 9,9 7.9,9 7,9.9 7,11 H 4 v 3 H 2 V 2 H 4 V 4.3 C 3.4,4.6 3,5.3 3,6 3,7.1 3.9,8 5,8 6.1,8 7,7.1 7,6 H 9 C 9,7.1 9.9,8 11,8 12.1,8 13,7.1 13,6 13,4.9 12.1,4 11,4 10.3,4 9.6,4.4 9.3,5 H 6.7 C 6.4,4.4 5.7,4 5,4 V 2 h 9 z M 8,11 c 0,-0.6 0.4,-1 1,-1 0.6,0 1,0.4 1,1 0,0.6 -0.4,1 -1,1 C 8.4,12 8,11.6 8,11 Z M 5,5 C 5.6,5 6,5.4 6,6 6,6.6 5.6,7 5,7 4.4,7 4,6.6 4,6 4,5.4 4.4,5 5,5 Z m 6,0 c 0.6,0 1,0.4 1,1 0,0.6 -0.4,1 -1,1 -0.6,0 -1,-0.4 -1,-1 0,-0.6 0.4,-1 1,-1 z"
     id="path2"
     style="fill:#ffffff"
     sodipodi:nodetypes="zszcccczzccccssscccccccssccsssccccccsssssssssssssss" />
</svg>
