<?xml version="1.0" encoding="UTF-8" standalone="no"?>
<!-- Uploaded to: SVG Repo, www.svgrepo.com, Generator: SVG Repo Mixer Tools -->

<svg
   fill="#C5C5C5"
   width="16"
   height="16"
   viewBox="-1 0 19 19"
   class="cf-icon-svg"
   version="1.1"
   id="svg19"
   sodipodi:docname="family-svgrepo-com.svg"
   inkscape:export-filename="family-svgrepo-com.png"
   inkscape:export-xdpi="1.92"
   inkscape:export-ydpi="1.92"
   xmlns:inkscape="http://www.inkscape.org/namespaces/inkscape"
   xmlns:sodipodi="http://sodipodi.sourceforge.net/DTD/sodipodi-0.dtd"
   xmlns="http://www.w3.org/2000/svg"
   xmlns:svg="http://www.w3.org/2000/svg">
  <defs
     id="defs23" />
  <sodipodi:namedview
     id="namedview21"
     pagecolor="#ffffff"
     bordercolor="#000000"
     borderopacity="0.25"
     inkscape:showpageshadow="2"
     inkscape:pageopacity="0.0"
     inkscape:pagecheckerboard="0"
     inkscape:deskcolor="#d1d1d1"
     showgrid="false" />
  <path
     d="m 7.181,15.129 a 1.81,1.81 0 0 0 0.223,0.872 H 1.85 A 1.27,1.27 0 0 1 0.583,14.734 v -1.9 A 3.176,3.176 0 0 1 3.75,9.667 H 9.228 A 3.177,3.177 0 0 0 9.785,10.734 3.135,3.135 0 0 0 7.181,13.82 Z M 6.6,8.717 A 3.236,3.236 0 1 1 9.836,5.481 3.236,3.236 0 0 1 6.6,8.717 Z m 9.817,6.412 a 0.875,0.875 0 0 1 -0.872,0.872 H 9.003 A 0.875,0.875 0 0 1 8.131,15.129 V 13.82 a 2.187,2.187 0 0 1 2.18,-2.18 h 3.925 a 2.187,2.187 0 0 1 2.18,2.18 z M 14.502,8.757 a 2.228,2.228 0 1 1 -2.228,-2.228 2.228,2.228 0 0 1 2.228,2.228 z"
     id="path17" />
</svg>
